<?xml version="1.0" encoding="utf-8"?>
<!-- Generator: Adobe Illustrator 19.2.1, SVG Export Plug-In . SVG Version: 6.00 Build 0)  -->
<svg version="1.1" id="Layer_1" xmlns="http://www.w3.org/2000/svg" xmlns:xlink="http://www.w3.org/1999/xlink" x="0px" y="0px"
	 viewBox="0 0 130 110.8" style="enable-background:new 0 0 130 110.8;" xml:space="preserve">
<style type="text/css">
	.st0{fill:#231F20;}
</style>
<g>
	<path class="st0" d="M96.2,64.6c0,0,0-0.1,0-0.1c-0.1-4.7-9-8.6-22.7-9.8c-0.4,0-0.8,0.3-0.9,0.7c-0.1,0.5,0.2,0.9,0.7,1
		c13.9,1.2,21.1,5.1,21.1,8.2c0,1.3-1.1,2.6-2.9,3.6c-0.4-0.3-1-0.5-1.6-0.7c-1-0.2-1.9-0.6-2.7-1.3c-0.1-0.4-0.2-0.8-0.1-1.2
		c0-2.6-0.6-5.4-7.4-5.4h-0.1c-5.9,0-7.6-0.7-8-0.9c0-0.1,0-0.1,0-0.2v-0.8c0-0.1,0-0.2-0.1-0.3c0-0.1,0.1-0.2,0.1-0.3V28.9l1.5-0.6
		l19.6-2.3c0.5-0.1,0.8-0.5,0.7-0.9s-0.5-0.8-0.9-0.7l-13,1.5L92,21.1c0.1,0,0.2-0.1,0.3-0.1c0.4-0.2,0.5-0.8,0.3-1.2
		c-0.2-0.4-0.8-0.5-1.2-0.3L73,26.7l-14.4,1.7c-0.4,0.1-0.7,0.4-0.7,0.8c0,0.5,0.4,0.9,0.8,0.9h0.1l7.8-0.9l-7.2,2.8
		c-0.3,0.1-0.5,0.4-0.5,0.8c0,0.5,0.4,0.9,0.8,0.9c0.1,0,0.2,0,0.2-0.1l3.2-1.2v25.2C62,58.1,60.9,59,60.1,60
		c-0.1,0.2-0.2,0.3-0.2,0.5c0,0.5,0.4,0.9,0.8,0.9c0.3,0,0.5-0.1,0.7-0.3c0.8-1,1.8-1.7,2.9-2.3c0.3-0.1,0.6-0.4,0.6-0.8V31.6
		l1.9-0.7v27.9c-0.8,0.7-2.3,2-1.9,3.5c0.4,1.6,2.9,1.9,3.8,2c1.6,0.2,3.5,0.2,5.2,0.2c2.7,0,6,0.1,6.6,0.9c0,0,0,0.1,0,0.3
		c-0.2,0.9-1.5,1.2-3.5,1.7c-2,0.4-4,0.8-4.8,2.5c-0.4,0.7-0.3,1.6,0.1,2.2c0.2,0.3,0.5,0.5,0.8,0.7c-2.7,0.3-5.5,0.4-8.2,0.4
		c-0.1,0-0.3,0-0.4,0c1.8-1.4,2.9-3.3,2.9-4.9c0-3.6-6.2-6.3-14.5-6.3c-7.2,0-13.8,2.7-14.9,6c-1.6-1-2.6-2.2-2.6-3.4
		c0-3.6,9.3-7.7,24.8-8.5c0.5,0,0.8-0.4,0.8-0.9s-0.4-0.8-0.9-0.8C47.5,55,33.8,58.5,33.8,64.6c0,0,0,0,0,0c0,0,0,0,0,0c0,0,0,0,0,0
		c0,6.8,2.2,28.8,31.2,28.8c28.8,0,31.2-21.7,31.2-28.6C96.2,64.7,96.2,64.6,96.2,64.6z M73.8,70.6c0.3-0.9,2-1.2,3.5-1.5
		c2.1-0.4,4.4-0.9,4.8-3c0.1-0.6,0-1.2-0.4-1.7c-1.1-1.4-4.1-1.5-7.9-1.5c-1.7,0-3.5-0.1-5.1-0.2c-1.8-0.2-2.3-0.6-2.3-0.8
		c-0.1-0.3,0.7-1.3,1.6-1.9c0.2-0.2,0.4-0.4,0.4-0.7V30.2l1.7-0.6v27.5c0,0.1,0,0.2,0.1,0.3c0,0.1-0.1,0.2-0.1,0.3v0.8
		c0,0.1,0,0.1,0,0.2c0,0.1-0.1,0.2-0.1,0.3c0,0.5,0.3,1.1,1.7,1.5c2.6,0.6,5.3,0.9,8,0.8h0.1c5.7,0,5.7,1.9,5.7,3.7
		c-0.1,0.8,0.1,1.5,0.4,2.2c0.8,1.2,2.4,1.7,3.5,2h0.2l-0.5,0.2c0,0-0.1,0-0.1,0.1c-1.3,0.5-2.7,1-4.2,1.4c-1.9,0.3-2.9-0.1-3.3-0.3
		c0.7-0.4,1.5-0.7,2.3-0.6c0.5,0,0.8-0.4,0.8-0.9c0-0.5-0.4-0.8-0.8-0.8c-0.3,0-2.9,0-4,1.7c-0.3,0.4-0.3,1,0.1,1.4
		c0.1,0.1,0.2,0.2,0.3,0.3c-2.5,0.2-5.8,0.3-6.4-0.5C73.7,71,73.8,70.7,73.8,70.6z M53,63.7c7.5,0,12.8,2.4,12.8,4.6
		c0,1.4-1.5,3.8-4.3,4.6c-0.1,0-0.3,0.1-0.4,0.2c-8.4-0.4-16.7-1.9-21.5-4.2C39.8,66.8,45.6,63.7,53,63.7z M65,91.6
		c-23.2,0-28.4-14.3-29.3-23.4c4.6,4.2,17.2,6.7,29.3,6.7c7.2,0,14.6-0.9,20.3-2.4c0.1,0,0.2,0,0.3,0c0.1,0,0.2,0,0.3-0.1
		c0.1,0,0.1-0.1,0.2-0.1c1.2-0.4,2.4-0.8,3.4-1.2c0.1,0,0.2,0,0.3-0.1c0.4-0.2,0.7-0.3,1-0.5c1.4-0.7,2.6-1.4,3.5-2.2
		C93.4,77.3,88.2,91.6,65,91.6z"/>
	<path class="st0" d="M55.6,64.7c-3,0-5.4,1.6-5.4,3.6c0,2,2.4,3.6,5.4,3.6c3,0,5.4-1.6,5.4-3.6C61,66.3,58.7,64.7,55.6,64.7z
		 M55.6,70.3c-2.2,0-3.7-1-3.7-1.9s1.5-1.9,3.7-1.9v0c2.2,0,3.7,1,3.7,1.9S57.8,70.3,55.6,70.3z"/>
</g>
</svg>
